<?xml version="1.0" encoding="utf-8"?>
<!-- Generator: Adobe Illustrator 23.0.3, SVG Export Plug-In . SVG Version: 6.00 Build 0)  -->
<svg version="1.1" id="_x3F__x3F__x3F__x3F__1" xmlns="http://www.w3.org/2000/svg" xmlns:xlink="http://www.w3.org/1999/xlink"
	 x="0px" y="0px" viewBox="0 0 350 100" style="enable-background:new 0 0 350 100;" xml:space="preserve">
<style type="text/css">
	.st0{fill-rule:evenodd;clip-rule:evenodd;fill:#3560AD;stroke:#3560AD;stroke-width:0.5669;stroke-miterlimit:22.9256;}
	.st1{fill:#3560AD;}
</style>
<g>
	<g>
		<path class="st0" d="M67.02,42.16l3.38-12.99l-13.76,3.05l-6.75-11.59l-7.58,11.94l-12.92-3.4l3.03,13.83L20.9,49.79l11.87,7.63
			l-3.37,12.99l13.75-3.05l6.75,11.59l7.59-11.94l12.92,3.4l-3.03-13.83l11.52-6.79L67.02,42.16z M66.86,66.84l-10.61-2.78
			l-6.23,9.8l-5.54-9.51l-11.29,2.5l2.77-10.67l-9.74-6.26l9.46-5.57L33.2,32.98l10.6,2.79l6.23-9.8l5.54,9.52l11.29-2.5
			l-2.77,10.67l9.75,6.26l-9.46,5.57L66.86,66.84z"/>
		<path class="st0" d="M41.1,14.73c3.3,1.96,6.39,3.17,7.94,3.19c1.29,0.32,4.74-0.94,8.45-3.14c4.32-2.58,7.35-5.47,6.75-6.47
			c-0.59-1-4.58,0.28-8.9,2.86c-2.71,1.61-4.9,3.35-6.02,4.67c-1.11-1.33-3.32-3.09-6.06-4.72c-4.32-2.58-8.31-3.86-8.9-2.86
			C33.76,9.26,36.78,12.15,41.1,14.73z"/>
		<path class="st0" d="M49.18,9.45c2.56,0,4.64-1.92,4.64-4.29c0-2.37-2.08-4.29-4.64-4.29c-2.56,0-4.64,1.92-4.64,4.29
			C44.53,7.52,46.62,9.45,49.18,9.45z M49.2,2.7c1.4,0,2.53,1.12,2.53,2.48c0,1.37-1.13,2.48-2.53,2.48c-1.39,0-2.53-1.12-2.53-2.48
			C46.67,3.82,47.81,2.7,49.2,2.7z"/>
		<path class="st0" d="M57.77,85.27c-3.3-1.96-6.39-3.17-7.94-3.19c-1.29-0.32-4.74,0.94-8.44,3.14c-4.32,2.58-7.35,5.47-6.75,6.47
			c0.59,1,4.58-0.28,8.9-2.86c2.71-1.61,4.9-3.35,6.02-4.67c1.11,1.33,3.32,3.09,6.06,4.72c4.32,2.58,8.31,3.86,8.9,2.86
			C65.11,90.74,62.09,87.85,57.77,85.27z"/>
		<path class="st0" d="M49.69,90.55c-2.56,0-4.64,1.92-4.64,4.29c0,2.36,2.08,4.29,4.64,4.29c2.56,0,4.64-1.92,4.64-4.29
			C54.34,92.48,52.25,90.55,49.69,90.55z M49.69,97.32c-1.39,0-2.53-1.11-2.53-2.48c0-1.37,1.14-2.48,2.53-2.48
			c1.4,0,2.53,1.11,2.53,2.48C52.22,96.21,51.09,97.32,49.69,97.32z"/>
		<path class="st0" d="M14.74,58.2c1.96-3.3,3.17-6.39,3.19-7.94c0.32-1.29-0.94-4.74-3.14-8.44c-2.58-4.32-5.47-7.35-6.47-6.75
			c-1,0.59,0.28,4.58,2.86,8.9c1.61,2.71,3.35,4.9,4.67,6.02c-1.33,1.11-3.09,3.32-4.72,6.06c-2.58,4.32-3.86,8.31-2.86,8.9
			C9.26,65.54,12.16,62.52,14.74,58.2z"/>
		<path class="st0" d="M9.45,50.12c0-2.56-1.92-4.64-4.29-4.64c-2.37,0-4.29,2.08-4.29,4.64s1.92,4.64,4.29,4.64
			C7.53,54.76,9.45,52.68,9.45,50.12z M5.16,52.6c-1.39,0-2.53-1.11-2.53-2.48c0-1.37,1.14-2.48,2.53-2.48
			c1.39,0,2.53,1.11,2.53,2.48C7.69,51.49,6.56,52.6,5.16,52.6z"/>
		<path class="st0" d="M84.64,50.4c1.33-1.11,3.09-3.32,4.72-6.06c2.58-4.32,3.86-8.31,2.86-8.9c-1-0.59-3.9,2.43-6.47,6.75
			c-1.96,3.3-3.17,6.39-3.19,7.94c-0.32,1.29,0.94,4.74,3.14,8.44c2.58,4.32,5.47,7.35,6.47,6.75c1-0.59-0.28-4.58-2.86-8.9
			C87.69,53.71,85.96,51.52,84.64,50.4z"/>
		<path class="st0" d="M95.31,45.62c-2.37,0-4.29,2.08-4.29,4.64c0,2.57,1.92,4.64,4.29,4.64c2.37,0,4.29-2.08,4.29-4.64
			C99.61,47.69,97.69,45.62,95.31,45.62z M95.31,52.74c-1.39,0-2.53-1.11-2.53-2.48c0-1.37,1.14-2.48,2.53-2.48
			c1.4,0,2.53,1.11,2.53,2.48C97.84,51.63,96.71,52.74,95.31,52.74z"/>
		<path class="st0" d="M18.29,31.46c3.72-0.94,6.76-2.28,7.87-3.36c1.13-0.69,2.69-4.01,3.75-8.19c1.24-4.88,1.32-9.07,0.2-9.35
			c-1.13-0.29-3.04,3.44-4.28,8.32c-0.77,3.05-1.1,5.84-0.96,7.56c-1.72-0.16-4.53,0.16-7.62,0.95c-4.88,1.24-8.6,3.15-8.32,4.28
			C9.22,32.79,13.41,32.7,18.29,31.46z"/>
		<path class="st0" d="M20.26,22.02c1.81-1.81,1.92-4.64,0.25-6.32c-1.67-1.68-4.5-1.57-6.31,0.25c-1.81,1.81-1.92,4.64-0.25,6.32
			C15.62,23.94,18.45,23.83,20.26,22.02z M17.23,16.5c1.39,0,2.53,1.11,2.53,2.48c0,1.37-1.14,2.48-2.53,2.48
			c-1.39,0-2.53-1.12-2.53-2.48C14.7,17.62,15.84,16.5,17.23,16.5z"/>
		<path class="st0" d="M73.64,27.33c1.11,1.08,4.15,2.42,7.87,3.36c4.88,1.24,9.07,1.32,9.35,0.2c0.29-1.13-3.44-3.04-8.32-4.28
			c-3.09-0.78-5.9-1.1-7.62-0.95c0.14-1.72-0.18-4.51-0.95-7.56c-1.24-4.88-3.15-8.6-4.28-8.32c-1.13,0.29-1.04,4.47,0.2,9.35
			C70.95,23.32,72.51,26.64,73.64,27.33z"/>
		<path class="st0" d="M85.86,21.49c1.68-1.68,1.57-4.5-0.25-6.32c-1.81-1.81-4.64-1.92-6.32-0.25c-1.68,1.68-1.57,4.51,0.25,6.32
			C81.35,23.06,84.18,23.17,85.86,21.49z M82.58,15.73c1.39,0,2.53,1.12,2.53,2.48c0,1.37-1.14,2.48-2.53,2.48
			c-1.4,0-2.53-1.11-2.53-2.48C80.05,16.85,81.18,15.73,82.58,15.73z"/>
		<path class="st0" d="M80,69.27c-3.72,0.95-6.76,2.29-7.87,3.37c-1.13,0.69-2.68,4.02-3.74,8.2c-1.23,4.88-1.31,9.07-0.19,9.35
			c1.13,0.28,3.04-3.44,4.26-8.32c0.77-3.06,1.09-5.84,0.95-7.56c1.72,0.15,4.53-0.17,7.62-0.96c4.88-1.24,8.6-3.16,8.31-4.29
			C89.06,67.93,84.87,68.03,80,69.27z"/>
		<path class="st0" d="M78.03,78.72c-1.81,1.81-1.92,4.64-0.24,6.32c1.68,1.67,4.5,1.56,6.31-0.26c1.81-1.81,1.92-4.64,0.24-6.32
			C82.67,76.79,79.84,76.91,78.03,78.72z M81.07,84.23c-1.39,0-2.53-1.11-2.53-2.48c0-1.37,1.14-2.48,2.53-2.48
			c1.4,0,2.53,1.11,2.53,2.48C83.6,83.12,82.47,84.23,81.07,84.23z"/>
		<path class="st0" d="M27.29,72.72c-1.11-1.08-4.15-2.42-7.87-3.37c-4.88-1.24-9.06-1.34-9.35-0.21c-0.29,1.13,3.44,3.04,8.31,4.29
			c3.09,0.79,5.9,1.11,7.62,0.96c-0.14,1.72,0.18,4.51,0.95,7.56c1.23,4.88,3.14,8.61,4.26,8.32c1.13-0.28,1.04-4.47-0.19-9.35
			C29.98,76.74,28.42,73.41,27.29,72.72z"/>
		<path class="st0" d="M15.07,78.54c-1.68,1.68-1.57,4.5,0.24,6.32c1.81,1.81,4.63,1.93,6.31,0.26c1.68-1.68,1.57-4.5-0.24-6.32
			C19.58,76.99,16.75,76.87,15.07,78.54z M18.35,84.31c-1.4,0-2.53-1.11-2.53-2.48c0-1.37,1.13-2.48,2.53-2.48
			c1.39,0,2.53,1.11,2.53,2.48C20.88,83.2,19.74,84.31,18.35,84.31z"/>
	</g>
	<g>
		<path class="st1" d="M130.37,46.3h-2.4V30.33h-0.05l-5.49,15.97h-2.27l-5.47-16.23h-0.08V46.3h-2.4V27.22H116l4.52,13.51
			c0.5,1.5,0.79,2.44,0.87,2.83h0.05c0.23-0.74,0.57-1.76,1.02-3.06l4.56-13.28h3.36V46.3z"/>
		<path class="st1" d="M133.52,36.65c0.39-1.45,1.11-2.56,2.15-3.33s2.34-1.15,3.91-1.15c2.07,0,3.69,0.63,4.86,1.9
			c1.17,1.27,1.75,3,1.75,5.21c0,2.22-0.58,4-1.74,5.34c-1.16,1.34-2.74,2-4.74,2c-1.01,0-1.98-0.22-2.92-0.67
			c-0.94-0.45-1.73-1.2-2.38-2.26s-0.97-2.69-0.97-4.88h10.34c-0.1-1.54-0.53-2.71-1.31-3.51c-0.78-0.81-1.74-1.21-2.9-1.21
			c-1.79,0-3.01,0.95-3.66,2.85L133.52,36.65z M143.65,40.73h-7.81c0.1,1.41,0.54,2.42,1.31,3.04c0.77,0.62,1.62,0.93,2.55,0.93
			c1.1,0,2.01-0.37,2.72-1.11C143.14,42.85,143.54,41.9,143.65,40.73z"/>
		<path class="st1" d="M160.32,41.52c-0.3,1.76-1,3.05-2.08,3.87c-1.08,0.82-2.31,1.23-3.68,1.23c-2,0-3.55-0.66-4.65-1.97
			c-1.09-1.31-1.64-3.06-1.64-5.23c0-1.8,0.31-3.23,0.94-4.32c0.63-1.08,1.42-1.84,2.36-2.28c0.95-0.44,1.94-0.66,2.98-0.66
			c1.42,0,2.64,0.37,3.65,1.11c1.01,0.74,1.63,1.82,1.87,3.25l-2.27,0.35c-0.23-0.93-0.61-1.63-1.14-2.1s-1.2-0.7-2.01-0.7
			c-1.31,0-2.3,0.46-2.98,1.39s-1.02,2.23-1.02,3.89c0,1.7,0.33,3.01,1,3.94s1.62,1.39,2.87,1.39c1.01,0,1.8-0.29,2.38-0.87
			s0.94-1.44,1.09-2.6L160.32,41.52z"/>
		<path class="st1" d="M164.75,34.04c0.87-1.24,2.11-1.86,3.72-1.86c1.78,0,3.2,0.65,4.27,1.94s1.6,2.98,1.6,5.06
			c0,2.4-0.6,4.25-1.79,5.53c-1.19,1.28-2.59,1.92-4.19,1.92c-1.62,0-2.89-0.69-3.79-2.06h-0.05v1.73h-2.19V27.22h2.34v6.82H164.75z
			 M168.19,44.7c1.08,0,1.98-0.47,2.69-1.4c0.71-0.93,1.06-2.24,1.06-3.92c0-1.62-0.33-2.91-0.98-3.86
			c-0.65-0.95-1.55-1.43-2.69-1.43c-1.13,0-2.04,0.49-2.73,1.47c-0.69,0.98-1.04,2.22-1.04,3.72c0,1.47,0.14,2.51,0.43,3.13
			c0.29,0.62,0.72,1.16,1.3,1.61C166.8,44.47,167.46,44.7,168.19,44.7z"/>
		<path class="st1" d="M188.36,46.3h-2.1v-2.03h-0.07c-1.06,1.57-2.5,2.36-4.33,2.36c-0.96,0-1.85-0.22-2.67-0.67
			c-0.82-0.45-1.37-1.06-1.64-1.85c-0.27-0.79-0.41-1.8-0.41-3.05v-8.57h2.34v7.65c0,1.22,0.06,2.1,0.18,2.63s0.42,0.97,0.92,1.31
			c0.49,0.34,1.08,0.51,1.77,0.51c0.88,0,1.72-0.31,2.5-0.92s1.17-1.88,1.17-3.81v-7.38h2.34V46.3z"/>
		<path class="st1" d="M199.44,32.92l-0.81,2.16c-0.58-0.34-1.15-0.51-1.71-0.51c-0.88,0-1.54,0.39-1.99,1.18
			c-0.45,0.79-0.68,1.89-0.68,3.3v7.25h-2.34V32.49h2.13v2.08h0.05c0.75-1.6,1.72-2.4,2.93-2.4
			C197.83,32.18,198.64,32.42,199.44,32.92z"/>
		<path class="st1" d="M203.22,29.87h-2.34v-2.66h2.34V29.87z M203.22,46.3h-2.34V32.49h2.34V46.3z"/>
		<path class="st1" d="M230.15,46.3h-3.33l-6.77-9.65l-3.15,3.03v6.61h-2.53V27.22h2.53v9.46l9.49-9.46h3.41l-7.99,7.73L230.15,46.3
			z"/>
		<path class="st1" d="M237.61,32.18c1.87,0,3.41,0.61,4.64,1.82c1.23,1.21,1.84,2.94,1.84,5.18c0,2.72-0.66,4.64-1.99,5.76
			s-2.83,1.69-4.49,1.69c-1.74,0-3.26-0.58-4.54-1.73c-1.29-1.15-1.93-2.99-1.93-5.49c0-2.43,0.62-4.24,1.86-5.44
			S235.78,32.18,237.61,32.18z M237.61,44.7c1.34,0,2.35-0.49,3.05-1.48c0.69-0.99,1.04-2.29,1.04-3.91c0-1.73-0.39-3.03-1.18-3.91
			c-0.79-0.88-1.75-1.31-2.91-1.31c-1.19,0-2.17,0.44-2.93,1.33s-1.15,2.22-1.15,3.98c0,1.75,0.39,3.07,1.17,3.96
			C235.48,44.25,236.45,44.7,237.61,44.7z M236.4,30.01h-2.41v-2.67h2.41V30.01z M241.22,30.01h-2.39v-2.67h2.39V30.01z"/>
		<path class="st1" d="M252.46,49.07c0-0.57-0.64-0.86-1.91-0.86l0.43-1.71c-1.56-0.29-2.77-1.06-3.63-2.3
			c-0.85-1.24-1.28-2.8-1.28-4.68c0-2.45,0.58-4.28,1.74-5.51s2.68-1.84,4.58-1.84c1.34,0,2.53,0.35,3.55,1.04
			c1.02,0.69,1.68,1.8,1.97,3.33l-2.29,0.38c-0.22-0.94-0.59-1.64-1.12-2.12c-0.53-0.47-1.21-0.71-2.06-0.71
			c-1.3,0-2.29,0.47-2.96,1.41c-0.67,0.94-1.01,2.24-1.01,3.91c0,1.7,0.33,3.01,1,3.92s1.62,1.37,2.87,1.37
			c0.98,0,1.76-0.29,2.34-0.86c0.58-0.57,0.96-1.43,1.15-2.58l2.3,0.29c-0.27,1.56-0.86,2.77-1.77,3.61s-2.14,1.33-3.7,1.46
			l-0.17,0.64c0.74,0.07,1.28,0.29,1.62,0.66s0.51,0.8,0.51,1.28c0,0.76-0.34,1.34-1.01,1.73c-0.68,0.39-1.6,0.59-2.77,0.59
			c-0.38,0-0.83-0.03-1.35-0.1l0.05-1.55c0.42,0.08,0.8,0.12,1.15,0.12C251.87,49.98,252.46,49.68,252.46,49.07z"/>
		<path class="st1" d="M271.59,46.3h-2.88l-4.6-7.07l-1.65,1.58v5.49h-2.34V27.22h2.34v10.87l5.55-5.6h3.05l-5.29,5.12L271.59,46.3z
			"/>
		<path class="st1" d="M284.67,46.3h-2.1v-2.03h-0.07c-1.06,1.57-2.5,2.36-4.33,2.36c-0.96,0-1.85-0.22-2.67-0.67
			c-0.82-0.45-1.37-1.06-1.64-1.85c-0.27-0.79-0.41-1.8-0.41-3.05v-8.57h2.34v7.65c0,1.22,0.06,2.1,0.18,2.63s0.42,0.97,0.92,1.31
			c0.49,0.34,1.08,0.51,1.77,0.51c0.88,0,1.72-0.31,2.5-0.92s1.17-1.88,1.17-3.81v-7.38h2.34V46.3z M277.89,30.01h-2.41v-2.67h2.41
			V30.01z M282.71,30.01h-2.39v-2.67h2.39V30.01z"/>
		<path class="st1" d="M299.59,46.3h-2.36v-8.4c0-1.41-0.25-2.39-0.76-2.92s-1.21-0.79-2.12-0.79c-0.69,0-1.35,0.17-1.97,0.51
			c-0.62,0.34-1.06,0.82-1.32,1.43c-0.26,0.62-0.39,1.49-0.39,2.62v7.55h-2.34V32.49h2.11v1.95h0.05c0.49-0.75,1.1-1.32,1.83-1.7
			s1.56-0.57,2.52-0.57c0.73,0,1.45,0.13,2.16,0.39c0.71,0.26,1.27,0.65,1.67,1.17c0.4,0.52,0.66,1.08,0.76,1.67
			c0.1,0.59,0.16,1.39,0.16,2.4V46.3z"/>
		<path class="st1" d="M305.47,46.3h-2.34V27.22h2.34V46.3z"/>
		<path class="st1" d="M308.39,36.65c0.39-1.45,1.11-2.56,2.15-3.33c1.04-0.77,2.34-1.15,3.91-1.15c2.07,0,3.7,0.63,4.86,1.9
			s1.75,3,1.75,5.21c0,2.22-0.58,4-1.74,5.34c-1.16,1.34-2.74,2-4.75,2c-1.01,0-1.98-0.22-2.92-0.67c-0.94-0.45-1.73-1.2-2.38-2.26
			c-0.65-1.06-0.97-2.69-0.97-4.88h10.34c-0.1-1.54-0.53-2.71-1.31-3.51s-1.74-1.21-2.9-1.21c-1.79,0-3.01,0.95-3.66,2.85
			L308.39,36.65z M318.52,40.73h-7.81c0.1,1.41,0.54,2.42,1.32,3.04c0.77,0.62,1.62,0.93,2.55,0.93c1.1,0,2.01-0.37,2.72-1.11
			C318,42.85,318.41,41.9,318.52,40.73z"/>
		<path class="st1" d="M331.33,32.92l-0.81,2.16c-0.58-0.34-1.15-0.51-1.71-0.51c-0.88,0-1.54,0.39-1.99,1.18
			c-0.45,0.79-0.68,1.89-0.68,3.3v7.25h-2.34V32.49h2.13v2.08h0.05c0.75-1.6,1.72-2.4,2.93-2.4
			C329.72,32.18,330.52,32.42,331.33,32.92z"/>
		<path class="st1" d="M335.1,29.87h-2.34v-2.66h2.34V29.87z M335.1,46.3h-2.34V32.49h2.34V46.3z"/>
		<path class="st1" d="M349.97,46.3h-2.36v-8.4c0-1.41-0.25-2.39-0.76-2.92s-1.21-0.79-2.12-0.79c-0.69,0-1.35,0.17-1.97,0.51
			c-0.62,0.34-1.06,0.82-1.32,1.43c-0.26,0.62-0.39,1.49-0.39,2.62v7.55h-2.34V32.49h2.11v1.95h0.05c0.49-0.75,1.1-1.32,1.83-1.7
			s1.56-0.57,2.52-0.57c0.73,0,1.45,0.13,2.16,0.39c0.71,0.26,1.27,0.65,1.67,1.17c0.4,0.52,0.66,1.08,0.76,1.67
			c0.1,0.59,0.16,1.39,0.16,2.4V46.3z"/>
		<path class="st1" d="M123.57,63.47c-0.1-1.21-0.54-2.13-1.31-2.74c-0.77-0.61-1.88-0.92-3.32-0.92c-1.3,0-2.36,0.24-3.18,0.73
			c-0.82,0.49-1.22,1.19-1.22,2.12c0,0.83,0.31,1.44,0.94,1.84c0.63,0.4,1.83,0.8,3.61,1.2c1.58,0.35,2.87,0.7,3.87,1.07
			c1,0.36,1.85,0.93,2.56,1.7c0.71,0.77,1.07,1.8,1.07,3.09c0,1.64-0.65,3-1.96,4.09s-3.01,1.63-5.11,1.63
			c-2.68,0-4.69-0.6-6.02-1.8c-1.33-1.2-2.04-2.75-2.12-4.66l2.4-0.21c0.11,1.53,0.7,2.64,1.77,3.34c1.07,0.7,2.36,1.05,3.87,1.05
			c1.41,0,2.56-0.29,3.43-0.87c0.87-0.58,1.31-1.37,1.31-2.37c0-1.04-0.46-1.8-1.37-2.28c-0.91-0.48-2.44-0.95-4.59-1.41
			c-2.15-0.46-3.7-1.12-4.64-1.96s-1.42-1.94-1.42-3.28c0-1.53,0.6-2.79,1.8-3.79s2.83-1.5,4.9-1.5c2.12,0,3.82,0.5,5.11,1.49
			s1.97,2.41,2.05,4.24L123.57,63.47z"/>
		<path class="st1" d="M135.38,62.84c1.87,0,3.41,0.61,4.64,1.82s1.84,2.94,1.84,5.18c0,2.72-0.66,4.64-1.99,5.76
			c-1.33,1.12-2.83,1.69-4.49,1.69c-1.74,0-3.26-0.58-4.54-1.73c-1.28-1.15-1.93-2.99-1.93-5.49c0-2.43,0.62-4.24,1.86-5.43
			S133.55,62.84,135.38,62.84z M135.38,75.36c1.34,0,2.35-0.49,3.05-1.48s1.04-2.29,1.04-3.91c0-1.73-0.39-3.03-1.18-3.91
			c-0.79-0.88-1.76-1.32-2.91-1.32c-1.19,0-2.17,0.45-2.93,1.33s-1.15,2.21-1.15,3.98c0,1.75,0.39,3.07,1.17,3.96
			S134.22,75.36,135.38,75.36z"/>
		<path class="st1" d="M152.29,67.01c-0.1-0.75-0.41-1.32-0.92-1.7s-1.21-0.57-2.12-0.57c-0.89,0-1.62,0.15-2.17,0.46
			c-0.55,0.3-0.83,0.75-0.83,1.33c0,0.55,0.22,0.94,0.66,1.17c0.44,0.23,1.3,0.52,2.6,0.86c1.46,0.37,2.55,0.7,3.27,0.99
			s1.29,0.69,1.69,1.2c0.4,0.52,0.61,1.23,0.61,2.15c0,1.23-0.5,2.27-1.51,3.11s-2.35,1.26-4.04,1.26c-1.75,0-3.12-0.37-4.11-1.11
			c-0.99-0.74-1.59-1.86-1.82-3.34l2.33-0.35c0.12,0.96,0.48,1.68,1.07,2.16c0.59,0.48,1.43,0.72,2.49,0.72
			c1.02,0,1.81-0.21,2.36-0.64c0.55-0.43,0.82-0.95,0.82-1.57c0-0.42-0.13-0.75-0.38-1c-0.25-0.25-0.57-0.44-0.94-0.57
			s-1.23-0.35-2.54-0.67c-1.96-0.47-3.26-1.04-3.89-1.71c-0.63-0.67-0.94-1.47-0.94-2.4c0-1.15,0.46-2.1,1.38-2.85
			s2.16-1.12,3.71-1.12c1.65,0,2.93,0.32,3.85,0.97s1.46,1.61,1.65,2.9L152.29,67.01z"/>
		<path class="st1" d="M160.26,60.53h-2.34v-2.66h2.34V60.53z M160.26,76.96h-2.34V63.15h2.34V76.96z"/>
		<path class="st1" d="M175.82,76.96h-2.46c-0.23-0.43-0.39-1-0.48-1.71c-1.57,1.35-3.27,2.03-5.09,2.03
			c-1.46,0-2.61-0.36-3.45-1.09c-0.84-0.73-1.26-1.69-1.26-2.89c0-1.15,0.41-2.09,1.22-2.83s2.22-1.23,4.22-1.48l2.19-0.33
			c0.82-0.13,1.49-0.29,2.02-0.48c0-0.7-0.02-1.2-0.06-1.49c-0.04-0.29-0.17-0.59-0.38-0.9s-0.55-0.56-1.02-0.76
			c-0.47-0.19-1.1-0.29-1.89-0.29c-1.01,0-1.8,0.19-2.39,0.56c-0.59,0.37-0.99,1.07-1.2,2.08l-2.29-0.3
			c0.25-1.42,0.9-2.48,1.94-3.19c1.04-0.71,2.47-1.07,4.3-1.07c1.66,0,2.88,0.25,3.65,0.74c0.78,0.49,1.25,1.08,1.43,1.78
			c0.18,0.69,0.27,1.59,0.27,2.68v3.15c0,1.92,0.04,3.21,0.11,3.86C175.25,75.7,175.46,76.33,175.82,76.96z M172.72,70.88v-0.85
			c-1.22,0.41-2.72,0.73-4.49,0.97c-1.77,0.24-2.66,0.99-2.66,2.25c0,0.63,0.24,1.16,0.72,1.57c0.48,0.41,1.16,0.62,2.06,0.62
			c1.15,0,2.17-0.34,3.05-1.03C172.28,73.71,172.72,72.54,172.72,70.88z"/>
		<path class="st1" d="M181.01,76.96h-2.34V57.88h2.34V76.96z"/>
		<path class="st1" d="M195.2,76.96h-2.54V57.88h2.54V76.96z M195.11,56.25h-2.4v-2.67h2.4V56.25z"/>
		<path class="st1" d="M210.69,76.96h-2.36v-8.4c0-1.41-0.25-2.39-0.76-2.92s-1.21-0.79-2.12-0.79c-0.69,0-1.35,0.17-1.97,0.51
			c-0.62,0.34-1.06,0.82-1.32,1.43c-0.26,0.62-0.39,1.49-0.39,2.62v7.55h-2.34V63.15h2.11v1.95h0.05c0.49-0.75,1.1-1.32,1.83-1.7
			c0.72-0.38,1.56-0.57,2.52-0.57c0.73,0,1.45,0.13,2.16,0.39c0.71,0.26,1.27,0.65,1.67,1.17s0.66,1.08,0.76,1.67
			c0.1,0.59,0.16,1.39,0.16,2.39V76.96z"/>
		<path class="st1" d="M225.67,76.96h-2.88l-4.6-7.07l-1.65,1.58v5.49h-2.34V57.88h2.34v10.87l5.55-5.6h3.05l-5.29,5.12
			L225.67,76.96z"/>
		<path class="st1" d="M229.91,60.53h-2.34v-2.66h2.34V60.53z M229.91,76.96h-2.34V63.15h2.34V76.96z"/>
		<path class="st1" d="M241.19,67.01c-0.1-0.75-0.41-1.32-0.92-1.7s-1.21-0.57-2.12-0.57c-0.89,0-1.62,0.15-2.17,0.46
			c-0.55,0.3-0.83,0.75-0.83,1.33c0,0.55,0.22,0.94,0.66,1.17s1.3,0.52,2.6,0.86c1.46,0.37,2.55,0.7,3.27,0.99s1.29,0.69,1.69,1.2
			s0.61,1.23,0.61,2.15c0,1.23-0.5,2.27-1.51,3.11s-2.35,1.26-4.04,1.26c-1.75,0-3.12-0.37-4.11-1.11
			c-0.98-0.74-1.59-1.86-1.82-3.34l2.33-0.35c0.12,0.96,0.48,1.68,1.07,2.16c0.59,0.48,1.42,0.72,2.49,0.72
			c1.02,0,1.81-0.21,2.36-0.64c0.55-0.43,0.82-0.95,0.82-1.57c0-0.42-0.13-0.75-0.38-1c-0.25-0.25-0.57-0.44-0.94-0.57
			s-1.23-0.35-2.54-0.67c-1.96-0.47-3.26-1.04-3.89-1.71c-0.63-0.67-0.94-1.47-0.94-2.4c0-1.15,0.46-2.1,1.38-2.85
			s2.16-1.12,3.71-1.12c1.65,0,2.93,0.32,3.85,0.97c0.92,0.65,1.46,1.61,1.65,2.9L241.19,67.01z M239.62,79.52
			c0,0.82-0.18,1.45-0.55,1.9s-0.89,0.83-1.59,1.13l-0.59-0.82c0.44-0.19,0.79-0.41,1.03-0.66s0.38-0.53,0.42-0.84h-1.22v-2.06h2.5
			V79.52z"/>
		<path class="st1" d="M258.79,76.96h-2.46c-0.23-0.43-0.39-1-0.48-1.71c-1.57,1.35-3.27,2.03-5.09,2.03
			c-1.46,0-2.61-0.36-3.45-1.09c-0.84-0.73-1.26-1.69-1.26-2.89c0-1.15,0.41-2.09,1.22-2.83s2.22-1.23,4.22-1.48l2.19-0.33
			c0.82-0.13,1.49-0.29,2.02-0.48c0-0.7-0.02-1.2-0.07-1.49c-0.04-0.29-0.17-0.59-0.38-0.9c-0.21-0.31-0.55-0.56-1.02-0.76
			c-0.47-0.19-1.1-0.29-1.89-0.29c-1.01,0-1.8,0.19-2.39,0.56c-0.59,0.37-0.99,1.07-1.2,2.08l-2.29-0.3
			c0.25-1.42,0.9-2.48,1.94-3.19c1.04-0.71,2.47-1.07,4.3-1.07c1.66,0,2.88,0.25,3.65,0.74c0.78,0.49,1.25,1.08,1.43,1.78
			c0.18,0.69,0.27,1.59,0.27,2.68v3.15c0,1.92,0.04,3.21,0.11,3.86C258.22,75.7,258.44,76.33,258.79,76.96z M255.69,70.88v-0.85
			c-1.22,0.41-2.72,0.73-4.49,0.97c-1.77,0.24-2.66,0.99-2.66,2.25c0,0.63,0.24,1.16,0.72,1.57s1.16,0.62,2.06,0.62
			c1.15,0,2.17-0.34,3.05-1.03C255.25,73.71,255.69,72.54,255.69,70.88z"/>
		<path class="st1" d="M268.15,57.78l-0.35,2.06c-0.47-0.09-0.93-0.13-1.38-0.13c-0.56,0-1.03,0.12-1.39,0.36
			c-0.36,0.24-0.54,0.83-0.54,1.78v1.3h2.67v1.81h-2.67v12h-2.34v-12h-2.08v-1.81h2.08v-1.5c0-0.69,0.07-1.32,0.2-1.89
			c0.13-0.56,0.48-1.07,1.04-1.53c0.56-0.46,1.42-0.68,2.58-0.68C266.66,57.55,267.39,57.63,268.15,57.78z"/>
		<path class="st1" d="M289.68,60.14h-10.35v5.91h8.97v2.27h-8.97v8.64h-2.53V57.88h12.88V60.14z"/>
		<path class="st1" d="M298.37,62.84c1.87,0,3.41,0.61,4.64,1.82c1.23,1.21,1.84,2.94,1.84,5.18c0,2.72-0.66,4.64-1.99,5.76
			s-2.83,1.69-4.49,1.69c-1.74,0-3.26-0.58-4.54-1.73c-1.29-1.15-1.93-2.99-1.93-5.49c0-2.43,0.62-4.24,1.86-5.43
			S296.53,62.84,298.37,62.84z M298.37,75.36c1.34,0,2.35-0.49,3.05-1.48s1.04-2.29,1.04-3.91c0-1.73-0.39-3.03-1.18-3.91
			c-0.79-0.88-1.75-1.32-2.91-1.32c-1.19,0-2.17,0.45-2.93,1.33s-1.15,2.21-1.15,3.98c0,1.75,0.39,3.07,1.17,3.96
			C296.23,74.91,297.2,75.36,298.37,75.36z"/>
		<path class="st1" d="M318.86,76.96h-2.36v-8.4c0-1.41-0.25-2.39-0.76-2.92s-1.21-0.79-2.12-0.79c-0.69,0-1.35,0.17-1.97,0.51
			c-0.62,0.34-1.06,0.82-1.32,1.43c-0.26,0.62-0.39,1.49-0.39,2.62v7.55h-2.34V63.15h2.11v1.95h0.05c0.49-0.75,1.1-1.32,1.83-1.7
			c0.72-0.38,1.56-0.57,2.52-0.57c0.73,0,1.45,0.13,2.16,0.39c0.71,0.26,1.27,0.65,1.67,1.17s0.66,1.08,0.76,1.67
			c0.1,0.59,0.16,1.39,0.16,2.39V76.96z"/>
		<path class="st1" d="M333.57,76.96h-2.19V75.2h-0.05c-0.84,1.39-2.11,2.08-3.81,2.08c-1.69,0-3.1-0.67-4.24-2.01
			s-1.7-3.08-1.7-5.21c0-2.23,0.53-3.99,1.6-5.29s2.48-1.94,4.23-1.94c1.65,0,2.9,0.63,3.76,1.89h0.05v-6.85h2.34V76.96z
			 M327.76,75.36c1.02,0,1.89-0.42,2.6-1.26c0.71-0.84,1.07-2.12,1.07-3.83c0-1.68-0.33-3.02-0.98-4.02c-0.65-1-1.58-1.5-2.8-1.5
			c-1.22,0-2.13,0.49-2.75,1.46c-0.62,0.98-0.93,2.26-0.93,3.85c0,1.15,0.17,2.12,0.5,2.91s0.8,1.39,1.4,1.79
			C326.47,75.16,327.1,75.36,327.76,75.36z"/>
		<path class="st1" d="M348.42,76.96h-2.1v-2.03h-0.07c-1.06,1.57-2.5,2.36-4.33,2.36c-0.96,0-1.85-0.22-2.67-0.67
			c-0.82-0.45-1.37-1.06-1.64-1.85c-0.27-0.79-0.41-1.8-0.41-3.05v-8.57h2.34v7.65c0,1.22,0.06,2.1,0.18,2.63
			c0.12,0.53,0.42,0.97,0.92,1.31c0.49,0.34,1.08,0.51,1.77,0.51c0.88,0,1.72-0.31,2.5-0.92c0.78-0.61,1.17-1.88,1.17-3.81v-7.38
			h2.34V76.96z"/>
	</g>
</g>
</svg>
